<?xml version="1.0" encoding="UTF-8"?>
<!DOCTYPE svg PUBLIC "-//W3C//DTD SVG 1.1//EN" "http://www.w3.org/Graphics/SVG/1.1/DTD/svg11.dtd">
<!-- Creator: CorelDRAW -->
<svg xmlns="http://www.w3.org/2000/svg" xml:space="preserve" width="508mm" height="339.196mm" version="1.1" style="shape-rendering:geometricPrecision; text-rendering:geometricPrecision; image-rendering:optimizeQuality; fill-rule:evenodd; clip-rule:evenodd"
viewBox="0 0 50799.98 33919.58"
 xmlns:xlink="http://www.w3.org/1999/xlink"
 xmlns:xodm="http://www.corel.com/coreldraw/odm/2003">
 <defs>
  <style type="text/css">
   <![CDATA[
    .fil0 {fill:none}
   ]]>
  </style>
   <clipPath id="id0">
    <path d="M-0.01 0l50799.99 0 0 33919.58 -50799.99 0 0 -33919.58z"/>
   </clipPath>
    <clipPath id="id1">
     <path d="M-0.01 0l50799.99 0 0 33919.58 -50799.99 0 0 -33919.58z"/>
    </clipPath>
    <clipPath id="id2">
     <path d="M-0.01 0l50799.99 0 0 33919.58 -50799.99 0 0 -33919.58z"/>
    </clipPath>
    <clipPath id="id3">
     <path d="M-0.01 0l50799.99 0 0 33919.58 -50799.99 0 0 -33919.58z"/>
    </clipPath>
    <clipPath id="id4">
     <path d="M-0.01 0l50799.99 0 0 33919.58 -50799.99 0 0 -33919.58z"/>
    </clipPath>
 </defs>
 <g id="Camada_x0020_1">
  <metadata id="CorelCorpID_0Corel-Layer"/>
  <g>
  </g>
  <g style="clip-path:url(#id0)">
   <g>
   </g>
   <g style="clip-path:url(#id1)">
    <image id="_61764.jpg" x="-4101.05" y="-1475.7" width="59002.08" height="36870.98" xlink:href="phr-bkg-bnn-img-homepage-20230513_Images/phr-bkg-bnn-img-homepage-20230513_ImgID1.png"/>
   </g>
   <g style="clip-path:url(#id2)">
   </g>
   <g style="clip-path:url(#id3)">
    <image id="codificacao-de-programa-de-computador-na-tela.jpg" x="-1613.97" y="-3266.81" width="54027.92" height="40453.21" xlink:href="phr-bkg-bnn-img-homepage-20230513_Images/phr-bkg-bnn-img-homepage-20230513_ImgID2.png"/>
   </g>
   <g style="clip-path:url(#id4)">
   </g>
  </g>
  <polygon class="fil0" points="-0.01,0 50799.98,0 50799.98,33919.58 -0.01,33919.58 "/>
 </g>
</svg>
